<svg width="20" height="20" viewBox="0 0 20 20" fill="#7377e1" xmlns="http://www.w3.org/2000/svg">
<path class="fill" d="M19.7266 17.3047C19.8828 17.5 20 17.7344 20 17.9688C20 18.2422 19.8828 18.4766 19.7266 18.6328L18.6328 19.7266C18.4375 19.9219 18.2031 20 17.9688 20C17.6953 20 17.4609 19.9219 17.3047 19.7266L13.3984 15.8203C13.2031 15.6641 13.125 15.4297 13.125 15.1562V14.5312C11.6406 15.7031 10 16.25 8.125 16.25C6.64062 16.25 5.27344 15.8984 4.02344 15.1562C2.77344 14.4531 1.79688 13.4766 1.09375 12.2266C0.351562 10.9766 0 9.60938 0 8.125C0 6.64062 0.351562 5.3125 1.09375 4.0625C1.79688 2.8125 2.77344 1.83594 4.02344 1.09375C5.27344 0.390625 6.64062 0 8.125 0C9.60938 0 10.9375 0.390625 12.1875 1.09375C13.4375 1.83594 14.4141 2.8125 15.1562 4.0625C15.8594 5.3125 16.25 6.64062 16.25 8.125C16.25 10 15.6641 11.6797 14.5312 13.125H15.1562C15.3906 13.125 15.625 13.2422 15.8203 13.3984L19.7266 17.3047ZM8.125 13.125C9.02344 13.125 9.84375 12.9297 10.625 12.4609C11.4062 12.0312 11.9922 11.4453 12.4609 10.6641C12.8906 9.88281 13.125 9.0625 13.125 8.125C13.125 7.22656 12.8906 6.40625 12.4609 5.625C11.9922 4.84375 11.4062 4.25781 10.625 3.78906C9.84375 3.35938 9.02344 3.125 8.125 3.125C7.1875 3.125 6.36719 3.35938 5.58594 3.78906C4.80469 4.25781 4.21875 4.84375 3.78906 5.625C3.32031 6.40625 3.125 7.22656 3.125 8.125C3.125 9.0625 3.32031 9.88281 3.78906 10.6641C4.21875 11.4453 4.80469 12.0312 5.58594 12.4609C6.36719 12.9297 7.1875 13.125 8.125 13.125Z"/>
</svg>
